<mxfile host="app.diagrams.net" modified="2023-10-01T09:26:17.702Z" agent="Mozilla/5.0 (Windows NT 10.0; Win64; x64) AppleWebKit/537.36 (KHTML, like Gecko) Chrome/116.0.5845.2272 YaBrowser/23.9.0.2272 Yowser/2.5 Safari/537.36" etag="Wlpen6Gr39HeZ4Qvmy6l" version="22.0.0" type="device">
  <diagram name="Страница — 1" id="Hm1J-OCi7lw3mDNB3Ysa">
    <mxGraphModel dx="783" dy="809" grid="1" gridSize="10" guides="1" tooltips="1" connect="1" arrows="1" fold="1" page="1" pageScale="1" pageWidth="827" pageHeight="1169" math="0" shadow="0">
      <root>
        <mxCell id="0" />
        <mxCell id="1" parent="0" />
        <mxCell id="35ORt62fWN4feTYiSA-6-1" value="Животные" style="rounded=0;whiteSpace=wrap;html=1;" vertex="1" parent="1">
          <mxGeometry x="650" y="210" width="120" height="60" as="geometry" />
        </mxCell>
        <mxCell id="35ORt62fWN4feTYiSA-6-7" style="edgeStyle=orthogonalEdgeStyle;rounded=0;orthogonalLoop=1;jettySize=auto;html=1;exitX=1;exitY=0.5;exitDx=0;exitDy=0;" edge="1" parent="1" source="35ORt62fWN4feTYiSA-6-4">
          <mxGeometry relative="1" as="geometry">
            <mxPoint x="710" y="270" as="targetPoint" />
          </mxGeometry>
        </mxCell>
        <mxCell id="35ORt62fWN4feTYiSA-6-4" value="домашние&lt;br/&gt;животные" style="rounded=0;whiteSpace=wrap;html=1;" vertex="1" parent="1">
          <mxGeometry x="344" y="290" width="140" height="60" as="geometry" />
        </mxCell>
        <mxCell id="35ORt62fWN4feTYiSA-6-8" style="edgeStyle=orthogonalEdgeStyle;rounded=0;orthogonalLoop=1;jettySize=auto;html=1;" edge="1" parent="1" source="35ORt62fWN4feTYiSA-6-5">
          <mxGeometry relative="1" as="geometry">
            <mxPoint x="710" y="270" as="targetPoint" />
          </mxGeometry>
        </mxCell>
        <mxCell id="35ORt62fWN4feTYiSA-6-5" value="вьючные животные" style="rounded=0;whiteSpace=wrap;html=1;" vertex="1" parent="1">
          <mxGeometry x="950" y="290" width="140" height="60" as="geometry" />
        </mxCell>
        <mxCell id="35ORt62fWN4feTYiSA-6-15" style="edgeStyle=orthogonalEdgeStyle;rounded=0;orthogonalLoop=1;jettySize=auto;html=1;entryX=0;entryY=0.5;entryDx=0;entryDy=0;" edge="1" parent="1" source="35ORt62fWN4feTYiSA-6-9" target="35ORt62fWN4feTYiSA-6-4">
          <mxGeometry relative="1" as="geometry" />
        </mxCell>
        <mxCell id="35ORt62fWN4feTYiSA-6-9" value="&#xa;собаки&#xa;&#xa;" style="rounded=0;whiteSpace=wrap;html=1;" vertex="1" parent="1">
          <mxGeometry x="160" y="380" width="120" height="60" as="geometry" />
        </mxCell>
        <mxCell id="35ORt62fWN4feTYiSA-6-16" style="edgeStyle=orthogonalEdgeStyle;rounded=0;orthogonalLoop=1;jettySize=auto;html=1;entryX=0.5;entryY=1;entryDx=0;entryDy=0;" edge="1" parent="1" source="35ORt62fWN4feTYiSA-6-10" target="35ORt62fWN4feTYiSA-6-4">
          <mxGeometry relative="1" as="geometry" />
        </mxCell>
        <mxCell id="35ORt62fWN4feTYiSA-6-10" value="&#xa;кошки&#xa;&#xa;" style="rounded=0;whiteSpace=wrap;html=1;" vertex="1" parent="1">
          <mxGeometry x="354" y="380" width="120" height="60" as="geometry" />
        </mxCell>
        <mxCell id="35ORt62fWN4feTYiSA-6-18" style="edgeStyle=orthogonalEdgeStyle;rounded=0;orthogonalLoop=1;jettySize=auto;html=1;entryX=1;entryY=0.75;entryDx=0;entryDy=0;" edge="1" parent="1" source="35ORt62fWN4feTYiSA-6-11" target="35ORt62fWN4feTYiSA-6-4">
          <mxGeometry relative="1" as="geometry" />
        </mxCell>
        <mxCell id="35ORt62fWN4feTYiSA-6-11" value="&#xa;хомяки,&#xa;&#xa;" style="rounded=0;whiteSpace=wrap;html=1;" vertex="1" parent="1">
          <mxGeometry x="530" y="380" width="120" height="60" as="geometry" />
        </mxCell>
        <mxCell id="35ORt62fWN4feTYiSA-6-19" style="edgeStyle=orthogonalEdgeStyle;rounded=0;orthogonalLoop=1;jettySize=auto;html=1;entryX=0;entryY=0.75;entryDx=0;entryDy=0;" edge="1" parent="1" source="35ORt62fWN4feTYiSA-6-12" target="35ORt62fWN4feTYiSA-6-5">
          <mxGeometry relative="1" as="geometry" />
        </mxCell>
        <mxCell id="35ORt62fWN4feTYiSA-6-12" value="&#xa;Лошади&#xa;&#xa;" style="rounded=0;whiteSpace=wrap;html=1;" vertex="1" parent="1">
          <mxGeometry x="800" y="380" width="120" height="60" as="geometry" />
        </mxCell>
        <mxCell id="35ORt62fWN4feTYiSA-6-20" style="edgeStyle=orthogonalEdgeStyle;rounded=0;orthogonalLoop=1;jettySize=auto;html=1;entryX=0.5;entryY=1;entryDx=0;entryDy=0;" edge="1" parent="1" source="35ORt62fWN4feTYiSA-6-13" target="35ORt62fWN4feTYiSA-6-5">
          <mxGeometry relative="1" as="geometry" />
        </mxCell>
        <mxCell id="35ORt62fWN4feTYiSA-6-13" value="&#xa;верблюды&#xa;&#xa;" style="rounded=0;whiteSpace=wrap;html=1;" vertex="1" parent="1">
          <mxGeometry x="960" y="380" width="120" height="60" as="geometry" />
        </mxCell>
        <mxCell id="35ORt62fWN4feTYiSA-6-21" style="edgeStyle=orthogonalEdgeStyle;rounded=0;orthogonalLoop=1;jettySize=auto;html=1;entryX=1;entryY=0.5;entryDx=0;entryDy=0;" edge="1" parent="1" source="35ORt62fWN4feTYiSA-6-14" target="35ORt62fWN4feTYiSA-6-5">
          <mxGeometry relative="1" as="geometry" />
        </mxCell>
        <mxCell id="35ORt62fWN4feTYiSA-6-14" value="&#xa;ослы&#xa;&#xa;" style="rounded=0;whiteSpace=wrap;html=1;" vertex="1" parent="1">
          <mxGeometry x="1120" y="380" width="120" height="60" as="geometry" />
        </mxCell>
      </root>
    </mxGraphModel>
  </diagram>
</mxfile>
